<svg width="1080" height="1080" viewBox="0 0 1080 1080" fill="none" xmlns="http://www.w3.org/2000/svg">
<rect width="1080" height="1080" fill="white"/>
<path d="M217 740.254C532.707 928.344 533.847 505.409 769.773 740.255" stroke="#0C4A98" stroke-width="50"/>
<path d="M283.86 679.706C319.174 656.782 377.731 464.891 509.931 482.456C523.551 483.432 558.003 496.361 567.618 520.513C594.859 560.765 538.738 663.702 476.907 663.702C410.988 663.702 435.943 581.09 501.862 543.46" stroke="#0C4A98" stroke-width="50"/>
<path d="M801.79 457.82C801.79 510.561 751.099 588.235 633.034 524.945C623.623 520.79 613.923 510.588 598.385 514.397" stroke="#0C4A98" stroke-width="50"/>
<rect x="740.58" y="330.657" width="122.42" height="112.457" rx="15" fill="#FC7200"/>
<ellipse cx="517.209" cy="384.291" rx="70.6268" ry="64.8789" fill="#0C4A98"/>
<rect width="135.019" height="62.5704" transform="matrix(0.960157 -0.279461 0.326064 0.945348 426.997 327.732)" fill="#0C4A98"/>
<rect width="89.6353" height="24.6392" transform="matrix(0.960159 -0.279453 0.326056 0.945351 530.393 340.135)" fill="#0C4A98"/>
</svg>
