<svg width="1080" height="1080" viewBox="0 0 1080 1080" fill="none" xmlns="http://www.w3.org/2000/svg">
<rect width="1080" height="1080" fill="white"/>
<path d="M217 578.254C532.707 766.344 533.847 343.409 769.773 578.255" stroke="#0C4A98" stroke-width="50"/>
<path d="M283.86 517.706C319.174 494.782 377.731 302.891 509.931 320.456C523.551 321.432 558.003 334.361 567.618 358.513C594.859 398.765 538.738 501.702 476.907 501.702C410.988 501.702 435.943 419.09 501.862 381.46" stroke="#0C4A98" stroke-width="50"/>
<path d="M801.79 295.82C801.79 348.561 751.099 426.235 633.034 362.945C623.623 358.79 613.923 348.588 598.385 352.397" stroke="#0C4A98" stroke-width="50"/>
<rect x="740.58" y="168.657" width="122.42" height="112.457" rx="15" fill="#FC7200"/>
<ellipse cx="517.209" cy="222.291" rx="70.6268" ry="64.8789" fill="#0C4A98"/>
<rect width="135.019" height="62.5704" transform="matrix(0.960157 -0.279461 0.326064 0.945348 426.997 165.732)" fill="#0C4A98"/>
<rect width="89.6353" height="24.6392" transform="matrix(0.960159 -0.279453 0.326056 0.945351 530.393 178.135)" fill="#0C4A98"/>
<path d="M170.887 802.736H218.621C222.726 802.736 226.45 803.752 229.793 805.783C233.178 807.772 235.866 810.438 237.854 813.781C239.886 817.124 240.901 820.848 240.901 824.953V833.967C240.901 838.072 239.907 841.774 237.918 845.075C235.971 848.376 233.305 851 229.92 852.946C226.535 854.893 222.747 855.866 218.558 855.866L245.472 893H229.158L202.244 855.866H191.897V842.536H218.621C221.118 842.536 223.234 841.69 224.969 839.997C226.704 838.262 227.571 836.188 227.571 833.776V824.953C227.571 822.499 226.704 820.404 224.969 818.669C223.234 816.934 221.118 816.066 218.621 816.066H184.28V893H170.887V802.736ZM258.23 802.736H306.219C310.916 802.736 315.19 803.879 319.041 806.164C322.934 808.449 326.023 811.517 328.309 815.368C330.594 819.177 331.736 823.43 331.736 828.127V867.863C331.736 872.476 330.594 876.687 328.309 880.495C326.023 884.304 322.934 887.351 319.041 889.636C315.19 891.879 310.916 893 306.219 893H258.23V802.736ZM306.219 879.606C309.604 879.606 312.482 878.443 314.852 876.115C317.221 873.788 318.406 870.974 318.406 867.673V828.127C318.406 824.784 317.221 821.949 314.852 819.621C312.482 817.251 309.604 816.066 306.219 816.066H271.624V879.606H306.219Z" fill="#FC7200"/>
<path d="M379.979 802.736H453.484V816.066H423.46V893H410.003V816.066H379.979V802.736ZM464.91 802.736H512.645C516.749 802.736 520.473 803.752 523.816 805.783C527.202 807.772 529.889 810.438 531.878 813.781C533.909 817.124 534.925 820.848 534.925 824.953V833.967C534.925 838.072 533.93 841.774 531.941 845.075C529.995 848.376 527.329 851 523.943 852.946C520.558 854.893 516.771 855.866 512.581 855.866L539.495 893H523.182L496.268 855.866H485.921V842.536H512.645C515.141 842.536 517.257 841.69 518.992 839.997C520.727 838.262 521.595 836.188 521.595 833.776V824.953C521.595 822.499 520.727 820.404 518.992 818.669C517.257 816.934 515.141 816.066 512.645 816.066H478.304V893H464.91V802.736ZM578.216 802.736H594.91L627.22 893H612.938L603.099 865.832H577.898L582.723 852.502H598.274L586.595 820.256L560.188 893H545.906L578.216 802.736ZM638.709 802.736H686.697C691.395 802.736 695.669 803.879 699.52 806.164C703.413 808.449 706.502 811.517 708.787 815.368C711.072 819.177 712.215 823.43 712.215 828.127V867.863C712.215 872.476 711.072 876.687 708.787 880.495C706.502 884.304 703.413 887.351 699.52 889.636C695.669 891.879 691.395 893 686.697 893H638.709V802.736ZM686.697 879.606C690.083 879.606 692.96 878.443 695.33 876.115C697.7 873.788 698.885 870.974 698.885 867.673V828.127C698.885 824.784 697.7 821.949 695.33 819.621C692.96 817.251 690.083 816.066 686.697 816.066H652.103V879.606H686.697ZM728.719 802.736H742.112V893H728.719V802.736ZM759.949 802.736H777.342L816.634 873.64V802.736H830.027V893H812.635L773.343 823.049V893H759.949V802.736ZM846.531 828.127C846.531 823.43 847.737 819.177 850.149 815.368C852.604 811.517 855.862 808.449 859.925 806.164C863.987 803.879 868.494 802.736 873.445 802.736H916.165V816.066H873.445C869.721 816.066 866.526 817.251 863.86 819.621C861.237 821.949 859.925 824.763 859.925 828.063V867.673C859.925 870.974 861.237 873.809 863.86 876.179C866.526 878.506 869.721 879.67 873.445 879.67H894.583C898.349 879.67 901.544 878.506 904.168 876.179C906.792 873.809 908.104 870.974 908.104 867.673V855.866H883.602V842.536H921.497V867.609C921.497 872.264 920.291 876.517 917.879 880.368C915.467 884.219 912.208 887.287 908.104 889.572C904.041 891.857 899.534 893 894.583 893H873.445C868.494 893 863.987 891.857 859.925 889.572C855.862 887.287 852.604 884.219 850.149 880.368C847.737 876.517 846.531 872.264 846.531 867.609V828.127Z" fill="#0C4A98"/>
</svg>
